Coordinates
version=1
nRows=10
nColumns=63
inDegrees=yes

Units are S.I. units (second, meters, Newtons, ...)
If the header above contains a line with 'inDegrees', this indicates whether rotational values are in degrees (yes) or radians (no).

endheader
time	pelvis_tilt	pelvis_list	pelvis_rotation	pelvis_tx	pelvis_ty	pelvis_tz	hip_flexion_r	hip_adduction_r	hip_rotation_r	knee_angle_r	knee_angle_r_beta	ankle_angle_r	subtalar_angle_r	mtp_angle_r	hip_flexion_l	hip_adduction_l	hip_rotation_l	knee_angle_l	knee_angle_l_beta	ankle_angle_l	subtalar_angle_l	mtp_angle_l	L5_S1_Flex_Ext	L5_S1_Lat_Bending	L5_S1_axial_rotation	L4_L5_Flex_Ext	L4_L5_Lat_Bending	L4_L5_axial_rotation	L3_L4_Flex_Ext	L3_L4_Lat_Bending	L3_L4_axial_rotation	L2_L3_Flex_Ext	L2_L3_Lat_Bending	L2_L3_axial_rotation	L1_L2_Flex_Ext	L1_L2_Lat_Bending	L1_L2_axial_rotation	L1_T12_Flex_Ext	L1_T12_Lat_Bending	L1_T12_axial_rotation	Abs_r3	Abs_r2	Abs_r1	Abs_t1	Abs_t2	neck_flexion	neck_bending	neck_rotation	arm_flex_r	arm_add_r	arm_rot_r	elbow_flex_r	pro_sup_r	wrist_flex_r	wrist_dev_r	arm_flex_l	arm_add_l	arm_rot_l	elbow_flex_l	pro_sup_l	wrist_flex_l	wrist_dev_l
      4.67796610	     -3.17468501	    -11.78625232	     80.31557180	      0.37182085	      1.03562153	      0.32727483	     21.64488234	     -7.75362144	     -5.48368932	     39.38771873	      0.68744538	     58.79876139	     18.60852956	      0.00000000	     19.60663652	      4.04546760	     -9.67491529	     37.74641554	      0.65879923	     47.91462634	    -11.02970528	      0.00000000	      0.01135188	     -0.36064748	     -0.67201697	      0.02108157	     -0.47966115	     -0.71401803	      0.01865000	     -0.87687829	     -0.71401803	      0.01297406	     -0.87687829	     -0.58801485	      0.01054135	     -0.73543235	     -0.54601379	      0.00648646	     -0.55864295	     -0.50401273	      0.08108532	     -4.07971645	     -3.73755680	      0.00000000	      0.00000000	     21.86266050	     -4.83799772	    -27.63454814	    -13.70282589	     -2.81678452	    -92.26842369	    126.70479214	     87.34190767	    -12.89960365	     27.09489788	     -2.41977524	    -13.92384194	    -32.09536803	    113.73132547	     89.49289119	     -8.14818138	     11.96726570
      4.69491525	     -2.47077561	    -11.47008209	     81.36665181	      0.37111023	      1.04141130	      0.32384662	     19.89155917	     -7.25209383	     -6.70207393	     37.44487037	      0.65353628	     58.04243965	     18.72468394	      0.00000000	     18.19109559	      3.61333355	     -9.18214079	     36.15067499	      0.63094831	     47.31976660	     -9.99964142	      0.00000000	      0.03511354	     -0.33235289	     -0.49497487	      0.06520936	     -0.44202935	     -0.52591080	      0.05768804	     -0.80808283	     -0.52591080	      0.04013127	     -0.80808283	     -0.43310301	      0.03260643	     -0.67773402	     -0.40216709	      0.02006388	     -0.51481463	     -0.37123116	      0.25081252	     -3.75964242	     -2.75290176	      0.00000000	      0.00000000	     20.32350824	     -6.48648362	    -30.69822663	    -15.11312137	     -4.62547238	    -92.63980403	    126.83040337	     87.94818752	    -16.40386048	     23.23992900	     -3.55281238	    -13.34164621	    -34.69830072	    114.01775309	     89.37500089	     -8.60787091	      6.65229351
      4.71186441	     -1.81725397	    -10.97083919	     81.96472518	      0.37062541	      1.04734900	      0.32057037	     18.07158590	     -6.63230605	     -7.37768783	     35.49280040	      0.61946623	     57.23145316	     18.80409278	      0.00000000	     16.50997965	      3.19051986	     -8.96932184	     34.34609248	      0.59945240	     46.66194976	     -9.27645315	      0.00000000	      0.03566707	     -0.29917805	     -0.30418340	      0.06623731	     -0.39790681	     -0.32319487	      0.05859742	     -0.72742151	     -0.32319487	      0.04076389	     -0.72742151	     -0.26616048	      0.03312044	     -0.61008388	     -0.24714902	      0.02038016	     -0.46342680	     -0.22813755	      0.25476628	     -3.38436194	     -1.69177684	      0.00000000	      0.00000000	     18.81863283	     -6.84257185	    -31.24446766	    -16.52697871	     -6.56019614	    -92.33185347	    126.83801028	     88.67343876	    -16.37129738	     22.52384386	     -4.05288806	    -12.28930064	    -38.89870189	    114.19397844	     89.09737077	     -8.34937046	      1.71083657
      4.72881356	     -1.01666742	    -10.70818719	     83.02368985	      0.36910565	      1.05258643	      0.31790785	     16.50174882	     -5.98180493	     -8.54938399	     33.70831347	      0.58832106	     56.33222363	     18.84684060	      0.00000000	     15.31939259	      2.60060743	     -8.50692079	     32.96603219	      0.57536580	     46.21831100	     -8.14189473	      0.00000000	      0.05387985	     -0.22178992	     -0.17356392	      0.10006028	     -0.29498059	     -0.18441166	      0.08851921	     -0.53926001	     -0.18441166	      0.06157928	     -0.53926001	     -0.15186843	      0.05003283	     -0.45227401	     -0.14102068	      0.03078695	     -0.34355259	     -0.13017294	      0.38485841	     -2.50893194	     -0.96531043	      0.00000000	      0.00000000	     18.26174288	     -6.54690467	    -28.74174048	    -18.34285053	     -8.17568676	    -91.00447482	    126.74171766	     89.07809964	    -16.29811170	     22.51421192	     -3.03815592	    -10.62510378	    -43.18372176	    112.84528498	     88.16123506	     -8.21750324	     -7.06279749
      4.74576271	     -0.38247878	    -10.37046218	     83.77456465	      0.36803559	      1.05764829	      0.31571994	     15.00948732	     -5.39944044	     -9.38813288	     32.05121194	      0.55939918	     55.35192477	     18.84695645	      0.00000000	     14.02712525	      2.15052515	     -8.17712924	     31.42161402	      0.54841062	     45.76312677	     -7.29035700	      0.00000000	      0.04376568	     -0.15591631	     -0.08441301	      0.08127725	     -0.20736870	     -0.08968882	      0.07190264	     -0.37909492	     -0.08968882	      0.05001980	     -0.37909492	     -0.07386138	      0.04064081	     -0.31794454	     -0.06858557	      0.02500771	     -0.24151437	     -0.06330975	      0.31261389	     -1.76375651	     -0.46947981	      0.00000000	      0.00000000	     18.15785537	     -5.27062983	    -23.83494351	    -19.59517556	     -9.33919906	    -88.05538816	    126.69994175	     89.28935998	    -15.08525619	     24.64549993	     -1.20980182	     -8.93991109	    -47.63450183	    111.57802211	     83.70693806	     -7.42238681	    -13.60219305
      4.76271186	      0.06270333	    -10.14017424	     84.47633370	      0.36734357	      1.06226246	      0.31385984	     13.71698763	     -4.97257147	    -10.18940012	     30.53727865	      0.53297606	     54.27591443	     18.84513634	      0.00000000	     12.81888224	      1.84365583	     -7.92789246	     29.73258073	      0.51893143	     45.28420902	     -6.41193160	      0.00000000	      0.02305556	     -0.11016487	     -0.04967226	      0.04281648	     -0.14651927	     -0.05277677	      0.03787798	     -0.26785486	     -0.05277677	      0.02635020	     -0.26785486	     -0.04346323	      0.02140939	     -0.22464820	     -0.04035871	      0.01317395	     -0.17064538	     -0.03725419	      0.16468357	     -1.24620701	     -0.27626220	      0.00000000	      0.00000000	     18.53435112	     -3.77186684	    -18.33841977	    -19.98923139	     -9.81630405	    -84.27067783	    126.70257749	     89.38694467	    -11.32618801	     28.53844634	      0.77560740	     -7.56307146	    -51.24846393	    110.60788296	     73.82570337	     -4.73335545	    -17.82207483
      4.77966102	      0.36337461	    -10.02533528	     85.06314897	      0.36701012	      1.06641986	      0.31230018	     12.61974886	     -4.63233328	    -10.87260320	     29.13198127	      0.50844899	     53.12312951	     18.79119714	      0.00000000	     11.70452210	      1.58839926	     -8.02486582	     27.94774004	      0.48778008	     44.77501178	     -5.27354632	      0.00000000	     -0.00200438	     -0.08661206	     -0.03495292	     -0.00372234	     -0.11519404	     -0.03713748	     -0.00329300	     -0.21058856	     -0.03713748	     -0.00229081	     -0.21058856	     -0.03058381	     -0.00186127	     -0.17661931	     -0.02839925	     -0.00114530	     -0.13416208	     -0.02621469	     -0.01431711	     -0.97977295	     -0.19439768	      0.00000000	      0.00000000	     19.50209317	     -1.98430214	    -13.12017638	    -19.51437318	     -9.58530856	    -79.57868252	    126.24368049	     89.42994731	     -7.55946512	     31.35742445	      2.11408517	     -6.57029776	    -54.20166503	    110.38511167	     70.20441665	     -4.95619002	    -18.62924221
      4.79661017	      0.49819395	    -10.05826134	     85.41016365	      0.36682269	      1.06997516	      0.31116830	     11.79900823	     -4.40322405	    -11.20075660	     27.84907132	      0.48605799	     51.92705908	     18.72523931	      0.00000000	     10.75317108	      1.46765711	     -8.34108518	     26.10141997	      0.45555572	     44.23582845	     -4.15628570	      0.00000000	     -0.01424283	     -0.09043685	      0.04053797	     -0.02645037	     -0.12028101	      0.04307159	     -0.02339955	     -0.21988816	      0.04307159	     -0.01627813	     -0.21988816	      0.03547072	     -0.01322590	     -0.18441882	      0.03293710	     -0.00813836	     -0.14008668	      0.03040348	     -0.10173514	     -1.02303973	      0.22546003	      0.00000000	      0.00000000	     21.11877263	     -0.49447736	     -9.47743293	    -18.61355311	     -8.88007005	    -74.78638943	    125.15273318	     89.46221191	     -4.81527695	     32.67049100	      2.31645130	     -6.16260719	    -55.31169597	    110.56634141	     73.93399364	    -10.46084861	    -17.30187976
      4.81355932	      0.53994224	    -10.21582206	     85.70187283	      0.36680325	      1.07290632	      0.31022351	     11.17113119	     -4.23731322	    -11.42296658	     26.67036639	      0.46548571	     50.79478120	     18.63057915	      0.00000000	      9.99698233	      1.40979092	     -8.83702043	     24.35704640	      0.42511066	     43.72684493	     -2.93896470	      0.00000000	     -0.00747832	     -0.10957855	      0.09918249	     -0.01388799	     -0.14573948	      0.10538139	     -0.01228613	     -0.26642929	      0.10538139	     -0.00854697	     -0.26642929	      0.08678468	     -0.00694437	     -0.22345259	      0.08058577	     -0.00427311	     -0.16973718	      0.07438686	     -0.05341689	     -1.23957451	      0.55162324	      0.00000000	      0.00000000	     23.30397229	      0.79768636	     -6.79455416	    -17.22912539	     -8.08751802	    -70.44832489	    123.90894929	     89.50200476	     -2.09656730	     33.25397195	      0.87386046	     -6.59503175	    -54.68423624	    111.10246363	     80.96149867	    -18.40457082	    -12.68381928
      4.83050847	      0.64653110	    -10.35078501	     86.13951785	      0.36650510	      1.07538623	      0.30927772	     10.47268172	     -4.02332835	    -11.74089157	     25.44649186	      0.44412507	     49.77813977	     18.59566548	      0.00000000	      9.25638134	      1.31984199	     -9.19322898	     22.68727861	      0.39596771	     43.31156989	     -1.58586501	      0.00000000	      0.00528518	     -0.12500903	      0.18481390	      0.00981511	     -0.16626201	      0.19636477	      0.00868303	     -0.30394696	      0.19636477	      0.00604043	     -0.30394696	      0.16171216	      0.00490782	     -0.25491842	      0.15016129	      0.00301995	     -0.19363899	      0.13861042	      0.03775153	     -1.41412717	      1.02787946	      0.00000000	      0.00000000	     25.44917299	      0.43920927	     -6.35276434	    -15.80859290	     -7.46385787	    -67.41132302	    123.09381154	     89.53641664	     -0.22263678	     33.53756035	     -1.49433006	     -7.81427763	    -52.36370156	    111.74216897	     87.18053027	    -24.35536526	     -4.04116387
